<svg xmlns="http://www.w3.org/2000/svg" xmlns:xlink="http://www.w3.org/1999/xlink" width="360" height="1065" viewBox="0 0 360 1065"><defs><style>.a{fill:#eee;}.b{clip-path:url(#a);}.c{opacity:0.14;}.d{opacity:0.54;}.e{opacity:0.31;}.f{opacity:0.39;}.g{opacity:0.16;}.h{opacity:0.3;}.i{opacity:0.24;}.j{opacity:0.19;}.k{opacity:0.35;}.l{opacity:0.1;}.m{opacity:0.15;}.n{opacity:0.34;}.o{opacity:0.36;}.p{opacity:0.25;}</style><clipPath id="a"><rect class="a" width="360" height="1065" transform="translate(0 1144)"/></clipPath></defs><g class="b" transform="translate(0 -1144)"><rect class="a" width="360" height="958" transform="translate(0 1144)"/><g class="c" transform="translate(754.326 1984.918) rotate(180)"><path class="d" d="M160,0,320,276.56H0Z" transform="translate(319.998 0)"/><path class="e" d="M160,0,320,276.56H0Z" transform="translate(639.996 0)"/><path class="f" d="M160,0,320,276.56H0Z" transform="translate(1120.718 276.56) rotate(180)"/><path class="g" d="M160,0,320,276.56H0Z" transform="translate(800.72 276.56) rotate(180)"/><path class="h" d="M160,0,320,276.56H0Z" transform="translate(480.721 131.327)"/><path class="i" d="M160,0,320,276.56H0Z" transform="translate(809.879 113.438)"/><path class="j" d="M160,0,320,276.56H0Z" transform="translate(1345.558 465.131) rotate(180)"/><path class="k" d="M160,0,320,276.56H0Z" transform="translate(961.443 407.886) rotate(180)"/><path class="l" d="M160,0,320,276.56H0Z" transform="translate(0 262.654)"/><path class="m" d="M160,0,320,276.56H0Z" transform="translate(319.998 262.654)"/><path class="n" d="M160,0,320,276.56H0Z" transform="translate(800.72 539.213) rotate(180)"/><path class="f" d="M160,0,320,276.56H0Z" transform="translate(480.721 539.213) rotate(180)"/><path class="l" d="M160,0,320,276.56H0Z" transform="translate(160.723 393.98)"/><path class="l" d="M160,0,320,276.56H0Z" transform="translate(480.721 393.98)"/><path class="o" d="M160,0,320,276.56H0Z" transform="translate(961.443 670.54) rotate(180)"/><path class="p" d="M160,0,320,276.56H0Z" transform="translate(641.444 670.54) rotate(180)"/></g></g></svg>